<?xml version="1.0" encoding="utf-8"?>
<!-- Generator: Adobe Illustrator 23.0.3, SVG Export Plug-In . SVG Version: 6.00 Build 0)  -->
<svg version="1.1" id="Layer_1" xmlns="http://www.w3.org/2000/svg" xmlns:xlink="http://www.w3.org/1999/xlink" x="0px" y="0px"
	 viewBox="0 0 168.2 168.2" style="enable-background:new 0 0 168.2 168.2;" xml:space="preserve">
<style type="text/css">
	.st0{fill:#FFFFFF;}
</style>
<title>control</title>
<path class="st0" d="M39.2,90.3L39.2,90.3c-3.9,0-7-3.1-7-7l0,0V65.1c0-18.1,14.7-32.8,32.8-32.8c0,0,0,0,0,0H129v14H65.1
	c-10.4,0-18.8,8.4-18.8,18.8c0,0,0,0,0,0v18.3C46.2,87.2,43.1,90.3,39.2,90.3z"/>
<path class="st0" d="M103.1,136H39.2v-14h63.9c10.4,0,18.8-8.4,18.9-18.8c0,0,0-0.1,0-0.1V84.8c0-3.9,3.1-7,7-7l0,0c3.9,0,7,3.1,7,7
	v18.3C136,121.3,121.3,136,103.1,136C103.2,136,103.2,136,103.1,136z"/>
<circle class="st0" cx="128.9" cy="39.2" r="16.7"/>
<circle class="st0" cx="39.2" cy="128.9" r="16.7"/>
</svg>
