<svg id="Layer_1" data-name="Layer 1" xmlns="http://www.w3.org/2000/svg" viewBox="0 0 202.18 202.18"><defs><style>.cls-1{fill:#ffffff;}</style></defs><title>control</title><path class="cls-1" d="M56.23,107.34h0a7,7,0,0,1-7-7V82.05A32.81,32.81,0,0,1,82.05,49.23H146v14H82.05A18.81,18.81,0,0,0,63.23,82.05v18.29A7,7,0,0,1,56.23,107.34Z"/><path class="cls-1" d="M120.13,153H56.23V139h63.9A18.83,18.83,0,0,0,139,120.13v-18.3a7,7,0,0,1,7-7h0a7,7,0,0,1,7,7v18.3A32.83,32.83,0,0,1,120.13,153Z"/><circle class="cls-1" cx="145.95" cy="56.23" r="16.73"/><circle class="cls-1" cx="56.23" cy="145.95" r="16.73"/><path class="cls-1" d="M109.87,80.73v40.72h-9.42V88.29H92.3V80.73Z"/></svg>