<?xml version="1.0" encoding="utf-8"?>
<!-- Generator: Adobe Illustrator 23.0.3, SVG Export Plug-In . SVG Version: 6.00 Build 0)  -->
<svg version="1.1" id="Layer_1" xmlns="http://www.w3.org/2000/svg" xmlns:xlink="http://www.w3.org/1999/xlink" x="0px" y="0px"
	 viewBox="0 0 202.2 202.2" style="enable-background:new 0 0 202.2 202.2;" xml:space="preserve">
<style type="text/css">
	.st0{fill:#FFFFFF;}
</style>
<title>control</title>
<g>
	<circle class="st0" cx="163.3" cy="63.4" r="19"/>
	<circle class="st0" cx="163.3" cy="138.8" r="19"/>
	<path class="st0" d="M163.4,148.7c-55.4,0-66-22.2-75.3-41.8c-8-16.9-15.1-31.7-58.7-33.5c-5.3-0.2-9.5-4.6-9.5-9.9l0,0
		c0-5.5,4.5-10,10-9.9c0.2,0,0.3,0,0.5,0C85.9,56.2,97,79.5,106,98.4c8.1,17,14.5,30.4,57.3,30.4V148.7z"/>
	<path class="st0" d="M75.6,114.5c2.8,6.2,6.1,12.1,10,17.8c-10.9,8.5-27.6,15-55.4,16.3c-5.5,0.2-10.1-4-10.3-9.5
		c0-0.2,0-0.3,0-0.5l0,0c0-5.4,4.2-9.7,9.6-9.9C54.7,127.6,67.6,122.2,75.6,114.5z"/>
	<path class="st0" d="M163.4,53.4v19.9c-42.8,0-49.2,13.4-57.3,30.4c-1.1,2.4-2.3,4.8-3.6,7.3L91.7,87.8
		C100.6,70.5,114.8,53.4,163.4,53.4z"/>
</g>
</svg>
